<svg width="14" height="14" viewBox="0 0 14 14" xmlns="http://www.w3.org/2000/svg">
  <path d="M13.958 5.405l-1.418 7.04a1.958 1.958 0 01-1.872 1.553H3.331a1.957 1.957 0 01-1.874-1.553L.041 5.404a1.555 1.555 0 01.303-1.33c.3-.372.756-.586 1.234-.575h1.93c0-1.934 1.567-3.5 3.496-3.5a3.497 3.497 0 013.495 3.5h1.922a1.55 1.55 0 011.538 1.905h-.001zM3.14 12.093a.245.245 0 00.193.155h7.333a.244.244 0 00.19-.155l.325-1.594h-8.36l.32 1.594zM7.003 1.75c-.966 0-1.748.783-1.748 1.75h3.494c0-.967-.782-1.75-1.747-1.75h.001zm-5.237 3.5l.704 3.499h9.066l.709-3.505H1.758l.009.005h-.002z" fill-rule="evenodd"/>
</svg>
