<svg width="14" height="14" viewBox="0 0 14 14" xmlns="http://www.w3.org/2000/svg">
  <path d="M13.963 8.903l-.693 1.671a.445.445 0 01-.582.243l-.79-.326c-.36-.149-.88-.044-1.154.23-.3.301-.402.817-.254 1.179l.327.787a.442.442 0 01-.241.583l-1.671.694a.445.445 0 01-.582-.241l-.327-.79c-.15-.36-.595-.654-.98-.654-.425 0-.863.293-1.015.655l-.326.79a.442.442 0 01-.583.242l-1.67-.691a.447.447 0 01-.243-.583l.326-.787c.15-.361.044-.882-.23-1.155-.3-.3-.817-.404-1.178-.254l-.79.327a.441.441 0 01-.581-.243L.035 8.906a.447.447 0 01.241-.584l.79-.327c.36-.15.654-.592.654-.977 0-.424-.292-.86-.655-1.011l-.789-.328a.442.442 0 01-.241-.583l.694-1.671a.447.447 0 01.581-.245l.788.326c.361.149.882.044 1.155-.23.3-.3.404-.817.253-1.178l-.325-.788a.442.442 0 01.241-.582L5.093.037a.445.445 0 01.582.241l.327.79c.15.36.595.654.98.654.425 0 .864-.293 1.015-.655l.326-.79a.442.442 0 01.583-.242l1.67.691a.447.447 0 01.243.583l-.324.783c-.15.364-.045.887.228 1.16.3.3.815.405 1.184.252l.784-.324a.44.44 0 01.581.241l.691 1.675a.447.447 0 01-.241.583l-.79.328c-.36.15-.654.592-.654.977 0 .424.293.86.655 1.011l.79.326c.228.094.338.35.242.583h-.002zM7 3.5A3.498 3.498 0 003.5 7 3.499 3.499 0 007 10.499 3.498 3.498 0 107 3.5zm0 5.25a1.75 1.75 0 11-.001-3.5 1.75 1.75 0 010 3.5z" fill-rule="evenodd"/>
</svg>
